PathFileType  4	(X/Y/Z) /dataNAS/people/anoopai/OpenCap/opencap-core/Examples/Data/88c07931-43a0-4e08-ab4a-30f03d0e7de7/MarkerData/PreAugmentation
DataRate	CameraRate	NumFrames	NumMarkers	Units	OrigDataRate	OrigDataStartFrame	OrigNumFrames
60.0	60.0	14	20	m	60.0	39	76
Frame#	Time	Neck			RShoulder			RElbow			RWrist			LShoulder			LElbow			LWrist			midHip			RHip			RKnee			RAnkle			LHip			LKnee			LAnkle			LBigToe			LSmallToe			LHeel			RBigToe			RSmallToe			RHeel			
		X1	Y1	Z1	X2	Y2	Z2	X3	Y3	Z3	X4	Y4	Z4	X5	Y5	Z5	X6	Y6	Z6	X7	Y7	Z7	X8	Y8	Z8	X9	Y9	Z9	X10	Y10	Z10	X11	Y11	Z11	X12	Y12	Z12	X13	Y13	Z13	X14	Y14	Z14	X15	Y15	Z15	X16	Y16	Z16	X17	Y17	Z17	X18	Y18	Z18	X19	Y19	Z19	X20	Y20	Z20	

39	0.6333333	0.2682700	1.1345300	-0.2308400	0.2863600	1.1363100	-0.0530000	0.3354200	0.9246500	0.1231400	0.4193400	0.7545100	0.3190900	0.2604800	1.1311700	-0.4113900	0.3108100	0.9480500	-0.5966000	0.3789600	0.7722000	-0.7865500	0.2713500	0.5864000	-0.2141200	0.2922000	0.5932700	-0.0980100	0.1868300	0.2111000	-0.0668800	0.1324000	-0.1802800	-0.0389500	0.2554100	0.5801000	-0.3317500	0.1500200	0.2122200	-0.3349300	0.0908200	-0.1731800	-0.3704600	0.2638300	-0.2287300	-0.4383600	0.2585800	-0.2275100	-0.4363800	0.0520100	-0.2059500	-0.3567300	0.3182600	-0.2331000	0.0005300	0.3145200	-0.2307300	0.0001400	0.0970100	-0.2111000	-0.0398000
40	0.6500000	0.2682600	1.1346100	-0.2308100	0.2863700	1.1363500	-0.0530800	0.3352000	0.9247000	0.1230900	0.4191300	0.7544000	0.3192100	0.2604400	1.1312700	-0.4112500	0.3106100	0.9480700	-0.5964600	0.3790900	0.7721200	-0.7864000	0.2713500	0.5865200	-0.2140800	0.2922100	0.5933900	-0.0980100	0.1870600	0.2113800	-0.0668100	0.1322900	-0.1802100	-0.0389400	0.2554100	0.5801400	-0.3317000	0.1499600	0.2122600	-0.3349700	0.0907900	-0.1731200	-0.3705700	0.2638200	-0.2288000	-0.4384600	0.2585900	-0.2275600	-0.4364700	0.0521000	-0.2059200	-0.3568200	0.3183600	-0.2330400	0.0005200	0.3146100	-0.2306700	0.0001400	0.0969400	-0.2109100	-0.0397200
41	0.6666667	0.2682400	1.1346900	-0.2307700	0.2863400	1.1364200	-0.0531600	0.3349800	0.9247100	0.1230000	0.4189500	0.7542700	0.3193700	0.2604200	1.1313700	-0.4110700	0.3104000	0.9480700	-0.5963400	0.3791800	0.7720800	-0.7862500	0.2713500	0.5866300	-0.2140600	0.2922200	0.5935200	-0.0979900	0.1873200	0.2116900	-0.0667700	0.1321900	-0.1801400	-0.0389200	0.2554000	0.5802400	-0.3316600	0.1499600	0.2123000	-0.3349900	0.0907600	-0.1730800	-0.3706700	0.2638000	-0.2289100	-0.4385300	0.2585500	-0.2276600	-0.4365500	0.0522200	-0.2059000	-0.3569400	0.3184700	-0.2329800	0.0004600	0.3147200	-0.2306100	0.0000900	0.0967800	-0.2108300	-0.0396500
42	0.6833333	0.2682400	1.1347900	-0.2307100	0.2863200	1.1364900	-0.0532400	0.3347800	0.9247700	0.1228500	0.4187800	0.7542100	0.3195400	0.2604000	1.1314900	-0.4108700	0.3101700	0.9481400	-0.5962300	0.3792300	0.7719800	-0.7860900	0.2713500	0.5867500	-0.2140500	0.2922500	0.5936700	-0.0980100	0.1875500	0.2120000	-0.0668200	0.1321100	-0.1801000	-0.0388900	0.2553500	0.5802700	-0.3316700	0.1499700	0.2124400	-0.3350200	0.0907000	-0.1730000	-0.3707600	0.2637300	-0.2290600	-0.4385900	0.2584700	-0.2278100	-0.4366200	0.0522600	-0.2059400	-0.3569600	0.3186000	-0.2329100	0.0003400	0.3148500	-0.2305500	-0.0000100	0.0966700	-0.2107400	-0.0396400
43	0.7000000	0.2682400	1.1348800	-0.2306500	0.2863200	1.1365600	-0.0533200	0.3346000	0.9249000	0.1226600	0.4186300	0.7542000	0.3197200	0.2604000	1.1315800	-0.4106700	0.3099400	0.9481900	-0.5960700	0.3792500	0.7719300	-0.7859300	0.2713700	0.5867400	-0.2140300	0.2922700	0.5936700	-0.0979700	0.1877300	0.2122900	-0.0669200	0.1320400	-0.1800400	-0.0388600	0.2553600	0.5803800	-0.3316400	0.1499900	0.2126600	-0.3350700	0.0906500	-0.1729400	-0.3708300	0.2636600	-0.2292000	-0.4386600	0.2584100	-0.2279400	-0.4366800	0.0522100	-0.2059500	-0.3570200	0.3187500	-0.2328600	0.0001800	0.3150000	-0.2305100	-0.0001600	0.0966200	-0.2105900	-0.0396100
44	0.7166667	0.2682500	1.1349600	-0.2305900	0.2863300	1.1366100	-0.0533900	0.3344400	0.9250200	0.1224600	0.4185100	0.7540800	0.3199100	0.2603900	1.1317000	-0.4105000	0.3097200	0.9482800	-0.5958700	0.3792200	0.7718600	-0.7857600	0.2713400	0.5872300	-0.2140600	0.2922600	0.5941000	-0.0981300	0.1878800	0.2125200	-0.0670000	0.1319800	-0.1799500	-0.0388200	0.2553300	0.5808200	-0.3315600	0.1500400	0.2129500	-0.3351100	0.0906200	-0.1729100	-0.3708700	0.2635700	-0.2293300	-0.4387400	0.2583100	-0.2280700	-0.4367700	0.0521600	-0.2058300	-0.3573300	0.3189000	-0.2328800	-0.0000100	0.3151400	-0.2304900	-0.0003600	0.0964900	-0.2104100	-0.0394100
45	0.7333333	0.2682500	1.1350000	-0.2305500	0.2863400	1.1366200	-0.0534200	0.3343000	0.9251000	0.1222800	0.4183900	0.7540300	0.3200700	0.2603800	1.1317800	-0.4103600	0.3095200	0.9484000	-0.5956300	0.3791600	0.7718300	-0.7856000	0.2713100	0.5874700	-0.2140700	0.2922500	0.5943300	-0.0981800	0.1879900	0.2127700	-0.0671400	0.1319400	-0.1798700	-0.0387800	0.2552900	0.5811000	-0.3315300	0.1501600	0.2132100	-0.3351300	0.0905900	-0.1728000	-0.3708900	0.2634700	-0.2294500	-0.4387900	0.2582000	-0.2281900	-0.4368200	0.0521700	-0.2058100	-0.3573800	0.3190200	-0.2328700	-0.0002100	0.3152400	-0.2304700	-0.0005600	0.0964400	-0.2102800	-0.0394100
46	0.7500000	0.2682400	1.1350200	-0.2305200	0.2863600	1.1366200	-0.0534300	0.3341700	0.9251700	0.1221200	0.4182900	0.7539200	0.3202200	0.2603400	1.1318200	-0.4102800	0.3093400	0.9485300	-0.5954000	0.3790800	0.7718500	-0.7854500	0.2713100	0.5874900	-0.2140600	0.2922300	0.5944000	-0.0981600	0.1880700	0.2130000	-0.0672700	0.1319200	-0.1797800	-0.0387500	0.2552900	0.5811400	-0.3315200	0.1502700	0.2135700	-0.3351400	0.0905800	-0.1727000	-0.3708800	0.2633700	-0.2295500	-0.4388500	0.2580900	-0.2282900	-0.4368800	0.0522100	-0.2057700	-0.3574200	0.3190700	-0.2328500	-0.0003900	0.3153100	-0.2304500	-0.0007300	0.0963900	-0.2101400	-0.0393800
47	0.7666667	0.2682000	1.1350400	-0.2305300	0.2863300	1.1366800	-0.0535000	0.3340700	0.9252200	0.1220200	0.4181900	0.7538900	0.3203300	0.2602800	1.1317900	-0.4102800	0.3091800	0.9485700	-0.5951800	0.3790100	0.7718900	-0.7853100	0.2712800	0.5876800	-0.2140500	0.2921800	0.5947000	-0.0982500	0.1881200	0.2132300	-0.0674000	0.1318900	-0.1796000	-0.0387100	0.2553000	0.5810200	-0.3315300	0.1504700	0.2137800	-0.3351100	0.0906000	-0.1725600	-0.3708600	0.2633200	-0.2296900	-0.4388200	0.2580400	-0.2284000	-0.4367900	0.0523900	-0.2060100	-0.3569400	0.3190800	-0.2328400	-0.0005400	0.3153100	-0.2304500	-0.0008700	0.0964400	-0.2102600	-0.0398600
48	0.7833333	0.2681300	1.1350500	-0.2305500	0.2862800	1.1367200	-0.0535400	0.3340400	0.9252000	0.1220000	0.4181000	0.7538300	0.3204100	0.2601900	1.1317500	-0.4102700	0.3090500	0.9485600	-0.5950100	0.3789600	0.7720200	-0.7852100	0.2711700	0.5876400	-0.2140600	0.2921700	0.5946300	-0.0982400	0.1881300	0.2133900	-0.0674900	0.1319100	-0.1795400	-0.0386900	0.2551000	0.5810100	-0.3315700	0.1506500	0.2139900	-0.3350600	0.0906800	-0.1725500	-0.3708400	0.2632800	-0.2298000	-0.4388500	0.2580000	-0.2285100	-0.4368300	0.0524200	-0.2060300	-0.3569200	0.3190300	-0.2328400	-0.0006300	0.3152600	-0.2304500	-0.0009600	0.0964100	-0.2102000	-0.0399000
49	0.8000000	0.2680200	1.1350400	-0.2305800	0.2861800	1.1367400	-0.0535600	0.3341000	0.9251100	0.1220800	0.4180400	0.7537200	0.3204800	0.2600700	1.1317400	-0.4102800	0.3089300	0.9484600	-0.5949100	0.3789400	0.7719100	-0.7851300	0.2710700	0.5873900	-0.2140400	0.2921500	0.5942400	-0.0981400	0.1881000	0.2134200	-0.0675100	0.1319800	-0.1796300	-0.0387000	0.2549400	0.5810600	-0.3315300	0.1508000	0.2141300	-0.3350000	0.0907900	-0.1726200	-0.3708300	0.2632400	-0.2298600	-0.4389700	0.2579700	-0.2285900	-0.4369900	0.0524700	-0.2058700	-0.3572900	0.3189200	-0.2328500	-0.0006800	0.3151300	-0.2304500	-0.0010000	0.0963500	-0.2099500	-0.0395100
50	0.8166667	0.2678800	1.1350500	-0.2306400	0.2860100	1.1368200	-0.0536500	0.3342300	0.9249600	0.1222300	0.4179700	0.7536600	0.3205400	0.2599500	1.1316900	-0.4103100	0.3088300	0.9483500	-0.5948800	0.3789500	0.7719600	-0.7850600	0.2709200	0.5871500	-0.2140400	0.2920200	0.5940300	-0.0981300	0.1880600	0.2133900	-0.0675100	0.1320500	-0.1796200	-0.0386800	0.2547100	0.5808100	-0.3315800	0.1508900	0.2142500	-0.3349700	0.0908800	-0.1726000	-0.3708200	0.2632200	-0.2300000	-0.4390300	0.2579400	-0.2287400	-0.4370500	0.0526600	-0.2060600	-0.3570800	0.3187400	-0.2328500	-0.0006900	0.3149500	-0.2304500	-0.0010200	0.0963300	-0.2098300	-0.0393000
51	0.8333333	0.2677200	1.1350300	-0.2307000	0.2857800	1.1368700	-0.0537500	0.3344200	0.9248100	0.1224200	0.4179400	0.7535600	0.3205900	0.2598500	1.1316100	-0.4103400	0.3087500	0.9482100	-0.5948900	0.3789900	0.7720600	-0.7850300	0.2707200	0.5869000	-0.2140700	0.2919000	0.5937400	-0.0981600	0.1879900	0.2133200	-0.0675700	0.1321500	-0.1796700	-0.0386500	0.2544300	0.5806900	-0.3316100	0.1509400	0.2142700	-0.3349500	0.0909900	-0.1726000	-0.3708100	0.2631900	-0.2301200	-0.4391000	0.2579100	-0.2288700	-0.4371300	0.0527500	-0.2060800	-0.3571200	0.3185400	-0.2328800	-0.0006900	0.3147400	-0.2304700	-0.0010300	0.0964000	-0.2099300	-0.0394900
52	0.8500000	0.2675500	1.1350200	-0.2307700	0.2854900	1.1369300	-0.0538900	0.3346400	0.9246100	0.1226300	0.4179000	0.7535200	0.3206400	0.2597800	1.1315500	-0.4103300	0.3087100	0.9480700	-0.5949300	0.3790300	0.7721500	-0.7850200	0.2704900	0.5865900	-0.2141100	0.2917400	0.5933600	-0.0981700	0.1879100	0.2131700	-0.0676100	0.1322500	-0.1796900	-0.0386000	0.2541100	0.5804600	-0.3316800	0.1509300	0.2142300	-0.3349600	0.0910800	-0.1726000	-0.3708000	0.2631600	-0.2302500	-0.4391400	0.2578700	-0.2289900	-0.4371600	0.0528700	-0.2061600	-0.3570600	0.3183200	-0.2328800	-0.0007100	0.3145100	-0.2304800	-0.0010500	0.0963800	-0.2098900	-0.0392900
